<svg width="180" height="180" viewBox="0 0 180 180" fill="none" xmlns="http://www.w3.org/2000/svg">
<circle cx="90" cy="90" r="90" fill="#D9D9D9"/>
<path d="M43.5165 111.264C40.3516 97.8132 50.4396 92.1429 55.8791 90.989V90.4945C50.9341 74.6703 52.9121 61.8132 59.3407 52.9121C65.7692 44.011 81.0989 34.6154 90.989 35.6044C100.879 36.5934 113.736 36.0989 125.604 49.9451C135.099 61.022 135.165 73.6813 134.011 78.6264C129.396 78.2967 119.176 79.9121 115.22 89.011C111.264 98.1099 114.89 105 117.198 107.308C117.198 110.077 114.56 109.451 113.242 108.791C106.813 99.3956 97.9121 98.4066 90.4945 97.9121C84.5604 97.5165 76.4835 101.044 73.1868 102.857C66.0659 106.418 62.3077 117.527 61.3187 122.637C50.6374 123.033 45 115.22 43.5165 111.264Z" fill="black"/>
<circle cx="90" cy="125.604" r="26.7033" fill="black"/>
<circle cx="131.538" cy="95.9341" r="16.8132" fill="black"/>
<path d="M96.4286 128.571L85.5494 111.264L83.5714 112.747L92.967 127.088C90.1978 125.901 88.1868 127.582 87.5275 128.571C86.2088 131.044 85.1538 135.989 91.4835 135.989C97.8132 135.989 97.4176 131.044 96.4286 128.571Z" fill="white"/>
<path d="M128.571 104.341V87.033L139.451 95.9341L128.571 104.341Z" fill="white"/>
<path d="M81.0989 52.4176L78.6264 81.5934L76.6484 80.6044C69.2308 77.1429 63.5934 86.9341 70.7143 90.4945C77.8352 94.0549 81.5934 89.011 82.5824 86.044L83.5714 59.8352L106.319 55.8791V75.6593C105.923 73.2857 102.198 73.3517 100.385 73.6813C96.4286 73.6813 91.5824 82.2857 97.9121 85.0549C104.242 87.8242 107.473 83.9011 108.297 81.5934L109.78 46.978L81.0989 52.4176Z" fill="white"/>
<circle cx="39.5604" cy="78.1319" r="5.93407" fill="black"/>
</svg>
