<svg width="182" height="182" viewBox="0 0 182 182" fill="none" xmlns="http://www.w3.org/2000/svg">
<circle cx="91" cy="91" r="91" fill="#D9D9D9"/>
<path d="M44 112.5C40.8 98.9 51 93.1667 56.5 92V91.5C51.5 75.5 53.5 62.5 60 53.5C66.5 44.5 82 35 92 36C102 37 115 36.5 127 50.5C136.6 61.7 136.667 74.5 135.5 79.5C130.833 79.1667 120.5 80.8 116.5 90C112.5 99.2 116.167 106.167 118.5 108.5C118.5 111.3 115.833 110.667 114.5 110C108 100.5 99 99.5 91.5 99C85.5 98.6 77.3333 102.167 74 104C66.8 107.6 63 118.833 62 124C51.2 124.4 45.5 116.5 44 112.5Z" fill="black"/>
<circle cx="91" cy="127" r="27" fill="black"/>
<circle cx="133" cy="97" r="17" fill="black"/>
<path d="M97.5 130L86.5 112.5L84.5 114L94 128.5C91.2 127.3 89.1667 129 88.5 130C87.1667 132.5 86.1 137.5 92.5 137.5C98.9 137.5 98.5 132.5 97.5 130Z" fill="white"/>
<path d="M130 105.5V88L141 97L130 105.5Z" fill="white"/>
<path d="M82 53L79.5 82.5L77.5 81.5C70 78 64.3 87.9 71.5 91.5C78.7 95.1 82.5 90 83.5 87L84.5 60.5L107.5 56.5V76.5C107.1 74.1 103.333 74.1667 101.5 74.5C97.5 74.5 92.6 83.2 99 86C105.4 88.8 108.667 84.8333 109.5 82.5L111 47.5L82 53Z" fill="white"/>
<circle cx="40" cy="79" r="6" fill="black"/>
</svg>
