<svg width="178" height="178" viewBox="0 0 178 178" fill="none" xmlns="http://www.w3.org/2000/svg">
<circle cx="89" cy="89" r="89" fill="#D9D9D9"/>
<path d="M38 54L37 162.5L46.5 167.5V62H139V84.5L140.5 162L148 156L147 94C147.167 85.6667 147.4 66 147 54C146.6 42 138.833 40.6667 135 41.5H49C40.6 41.5 38.1667 49.8333 38 54Z" fill="black"/>
<rect x="56" y="89" width="73" height="52" rx="12" fill="black"/>
<path d="M97 100H89L91 122H95.5L97 100Z" fill="white"/>
<path d="M93 124.5C89 124.5 87.5 129.556 91 131.5C97.3036 135.002 100 124.5 93 124.5Z" fill="white"/>
<circle cx="139" cy="70" r="14" fill="black"/>
<path d="M134.5 75L144.5 65" stroke="white" stroke-width="3" stroke-linecap="round"/>
<path d="M144.587 74.912L134.414 65.088" stroke="white" stroke-width="3" stroke-linecap="round"/>
<line x1="86.5" y1="53.5" x2="102.5" y2="53.5" stroke="white" stroke-width="3" stroke-linecap="round"/>
</svg>
