<svg width="180" height="180" viewBox="0 0 180 180" fill="none" xmlns="http://www.w3.org/2000/svg">
<circle cx="90" cy="90" r="90" fill="#D9D9D9"/>
<path d="M80 65.5L78 106.5C71.2 101.7 65.5835 105.197 64 107.5C58.5 115.5 64 120.167 66.5 121.5C73 124.5 80.3333 119.333 81 116L83.5 76.5L117 70.5L115.5 99.5C114.7 98.3 112.5 97.6667 111.5 97.5C102.5 97 100.5 103.667 100 106.5C99.6667 109.5 101 115.6 109 116C117 116.4 118.667 109.833 118.5 106.5L120 58.5L80 65.5Z" fill="black" stroke="black"/>
<circle cx="52" cy="62" r="17" fill="black"/>
<path d="M53 55.5C53 54.9477 52.5523 54.5 52 54.5C51.4477 54.5 51 54.9477 51 55.5L53 55.5ZM51.2929 72.7071C51.6834 73.0976 52.3166 73.0976 52.7071 72.7071L59.0711 66.3431C59.4616 65.9526 59.4616 65.3195 59.0711 64.9289C58.6805 64.5384 58.0474 64.5384 57.6569 64.9289L52 70.5858L46.3431 64.9289C45.9526 64.5384 45.3195 64.5384 44.9289 64.9289C44.5384 65.3195 44.5384 65.9526 44.9289 66.3431L51.2929 72.7071ZM51 55.5L51 72L53 72L53 55.5L51 55.5Z" fill="white"/>
</svg>
