<svg width="180" height="180" viewBox="0 0 180 180" fill="none" xmlns="http://www.w3.org/2000/svg">
<circle cx="90" cy="90" r="90" fill="#D9D9D9"/>
<path d="M38.427 54.6067L37.4157 164.326L47.0225 169.382V62.6966H140.562V85.4494L142.079 163.82L149.663 157.753L148.652 95.0562C148.82 86.6292 149.056 66.7416 148.652 54.6067C148.247 42.4719 140.393 41.1236 136.517 41.9663H49.5506C41.0562 41.9663 38.5955 50.3933 38.427 54.6067Z" fill="black"/>
<rect x="56.6292" y="90" width="73.8202" height="52.5843" rx="12" fill="black"/>
<path d="M98.0899 101.124H90L92.0225 123.371H96.573L98.0899 101.124Z" fill="white"/>
<path d="M94.0449 125.899C90 125.899 88.4831 131.011 92.0225 132.978C98.3969 136.519 101.124 125.899 94.0449 125.899Z" fill="white"/>
<circle cx="140.562" cy="70.7865" r="14.1573" fill="black"/>
<path d="M136.011 75.8427L146.124 65.7303" stroke="white" stroke-width="3" stroke-linecap="round"/>
<path d="M146.211 75.7537L135.924 65.8193" stroke="white" stroke-width="3" stroke-linecap="round"/>
<line x1="87.455" y1="54.118" x2="103.669" y2="54.118" stroke="white" stroke-width="3" stroke-linecap="round"/>
</svg>
