<svg width="340" height="340" viewBox="0 0 340 340" fill="none" xmlns="http://www.w3.org/2000/svg">
<circle cx="170" cy="170" r="170" fill="#222326"/>
<path d="M195 116.5C170.6 119.7 168.167 139.833 170 149.5C135.2 145.5 118.5 127.833 114.5 119.5C104.5 140.7 115.667 153.667 122.5 157.5L110.5 154.5C107.3 167.3 122.5 178.167 130.5 182H119C126.6 196.4 139.167 200.333 144.5 200.5C136.9 210.1 114.667 211.833 104.5 211.5C138.5 233.5 175.667 220.667 190 211.5C222.4 183.1 225.167 154.667 222.5 144C229.7 139.6 234.833 132.5 236.5 129.5C232.1 131.5 225.333 132.667 222.5 133C228.1 130.2 231.5 122.833 232.5 119.5C224.5 123.5 217.833 124.833 215.5 125C209.1 116.2 199.167 115.667 195 116.5Z" fill="white"/>
</svg>
