<svg width="382" height="382" viewBox="0 0 382 382" fill="none" xmlns="http://www.w3.org/2000/svg">
<circle cx="191" cy="191" r="191" fill="#8F8F8F"/>
<path d="M177.5 38H203.5C185.9 68 188.167 87.5 191.5 93.5L225.5 141.5C210.7 147.9 180 125.167 166.5 113H146L80.5 153.5L86 224.5C93.3333 228.833 115.6 237.5 146 237.5C176.4 237.5 189 246.167 191.5 250.5L219 302.5H244C256 289.3 268 253.667 272.5 237.5L262.5 200C266.5 201.5 279.1 203.6 297.5 200C315.9 196.4 308.167 162.167 302 145.5L329 126C346.6 139.2 346.667 183.833 344.5 204.5C327 308 255 323.5 229 334.5C208.2 343.3 195.333 334.5 191.5 329L166.5 302.5L114.5 297C112.1 268.2 72.5 235 53 222C49.1667 218.667 41.9 202.4 43.5 164C45.1 125.6 75.5 90.6667 90.5 78C96.1 104 117.5 99.1667 127.5 93.5L177.5 38Z" fill="black"/>
</svg>
